<svg id="Group_970" data-name="Group 970" xmlns="http://www.w3.org/2000/svg" width="100" height="100" viewBox="0 0 100 100">
  <rect id="Rectangle_106" data-name="Rectangle 106" width="100" height="100" rx="11" fill="#ff9a2f"/>
  <path id="Icon_awesome-quote-left" data-name="Icon awesome-quote-left" d="M64.553,33.413H53.423v8.9a8.912,8.912,0,0,0,8.9,8.9H63.44a3.331,3.331,0,0,1,3.339,3.339v6.678a3.331,3.331,0,0,1-3.339,3.339H62.327a22.253,22.253,0,0,1-22.26-22.26V8.928A6.68,6.68,0,0,1,46.745,2.25H64.553A6.68,6.68,0,0,1,71.23,8.928V26.735A6.68,6.68,0,0,1,64.553,33.413Zm-40.067,0H13.356v8.9a8.912,8.912,0,0,0,8.9,8.9h1.113a3.331,3.331,0,0,1,3.339,3.339v6.678a3.331,3.331,0,0,1-3.339,3.339H22.26A22.253,22.253,0,0,1,0,42.317V8.928A6.68,6.68,0,0,1,6.678,2.25H24.485a6.68,6.68,0,0,1,6.678,6.678V26.735A6.68,6.68,0,0,1,24.485,33.413Z" transform="translate(14.385 16.587)" fill="#fff"/>
</svg>
